<?xml version="1.0" encoding="UTF-8" standalone="no"?>
<!-- Created with Inkscape (http://www.inkscape.org/) -->

<svg
   xmlns:dc="http://purl.org/dc/elements/1.1/"
   xmlns:cc="http://creativecommons.org/ns#"
   xmlns:rdf="http://www.w3.org/1999/02/22-rdf-syntax-ns#"
   xmlns:svg="http://www.w3.org/2000/svg"
   xmlns="http://www.w3.org/2000/svg"
   xmlns:sodipodi="http://sodipodi.sourceforge.net/DTD/sodipodi-0.dtd"
   xmlns:inkscape="http://www.inkscape.org/namespaces/inkscape"
   width="250.99976"
   height="180.94792"
   viewBox="0 0 66.41035 47.875804"
   version="1.1"
   id="svg28548"
   inkscape:version="0.92.0 r15299"
   sodipodi:docname="travel centers america.svg">
  <defs
     id="defs28542" />
  <sodipodi:namedview
     id="base"
     pagecolor="#ffffff"
     bordercolor="#666666"
     borderopacity="1.0"
     inkscape:pageopacity="0.0"
     inkscape:pageshadow="2"
     inkscape:zoom="2.9619681"
     inkscape:cx="124.99987"
     inkscape:cy="89.97396"
     inkscape:document-units="mm"
     inkscape:current-layer="layer1"
     showgrid="false"
     inkscape:window-width="1280"
     inkscape:window-height="744"
     inkscape:window-x="-4"
     inkscape:window-y="-4"
     inkscape:window-maximized="1"
     fit-margin-top="0"
     fit-margin-left="0"
     fit-margin-right="0"
     fit-margin-bottom="0"
     units="px" />
  <metadata
     id="metadata28545">
    <rdf:RDF>
      <cc:Work
         rdf:about="">
        <dc:format>image/svg+xml</dc:format>
        <dc:type
           rdf:resource="http://purl.org/dc/dcmitype/StillImage" />
        <dc:title></dc:title>
      </cc:Work>
    </rdf:RDF>
  </metadata>
  <g
     inkscape:label="Layer 1"
     inkscape:groupmode="layer"
     id="layer1"
     transform="translate(-86.60579,-169.89458)">
    <g
       id="g28596"
       transform="matrix(9.9057876,0,0,9.9498675,-771.43455,-1948.9426)"
       style="stroke-width:0.10072722">
      <g
         transform="matrix(0.35277777,0,0,-0.35277777,87.068717,212.9669)"
         id="g10085"
         style="stroke-width:0.10072722">
        <path
           inkscape:connector-curvature="0"
           id="path10087"
           style="fill:#ffffff;fill-opacity:1;fill-rule:nonzero;stroke:none;stroke-width:0.10072722"
           d="m 0,0 h 12.29 l 4.036,-13.551 h -4.325 l -0.72,2.126 H 8.037 l -0.721,-2.126 h -8.361 l 2.82,9.478 h -3 z" />
      </g>
      <g
         transform="matrix(0.35277777,0,0,-0.35277777,87.068717,212.9669)"
         id="g10089"
         style="stroke-width:0.10072722">
        <path
           inkscape:connector-curvature="0"
           id="path10091"
           style="fill:none;stroke:#ffffff;stroke-width:0.01309454;stroke-linecap:butt;stroke-linejoin:miter;stroke-miterlimit:3.86400008;stroke-dasharray:none;stroke-opacity:1"
           d="m 0,0 h 12.29 l 4.036,-13.551 h -4.325 l -0.72,2.126 H 8.037 l -0.721,-2.126 h -8.361 l 2.82,9.478 h -3 z" />
      </g>
      <g
         transform="matrix(0.35277777,0,0,-0.35277777,90.666627,213.07728)"
         id="g10093"
         style="stroke-width:0.10072722">
        <path
           inkscape:connector-curvature="0"
           id="path10095"
           style="fill:#0060a9;fill-opacity:1;fill-rule:nonzero;stroke:none;stroke-width:0.10072722"
           d="m 0,0 -1.102,-3.467 c 0.021,-0.007 -0.04,0 -3.127,0 l -3.005,-9.437 h -3.495 l 2.788,9.464 h -2.978 L -9.872,0 H 0" />
      </g>
      <g
         transform="matrix(0.35277777,0,0,-0.35277777,90.666627,213.07728)"
         id="g10097"
         style="stroke-width:0.10072722">
        <path
           inkscape:connector-curvature="0"
           id="path10099"
           style="fill:none;stroke:#0060a9;stroke-width:0.01460545;stroke-linecap:butt;stroke-linejoin:miter;stroke-miterlimit:3.86400008;stroke-dasharray:none;stroke-opacity:1"
           d="m 0,0 -1.102,-3.467 c 0.021,-0.007 -0.04,0 -3.127,0 l -3.005,-9.437 h -3.495 l 2.788,9.464 h -2.978 L -9.872,0 Z" />
      </g>
      <g
         transform="matrix(0.35277777,0,0,-0.35277777,90.474717,214.7178)"
         id="g10101"
         style="stroke-width:0.10072722">
        <path
           inkscape:connector-curvature="0"
           id="path10103"
           style="fill:#ed1c2e;fill-opacity:1;fill-rule:nonzero;stroke:none;stroke-width:0.10072722"
           d="M 0,0 -0.911,-2.774 H 0.925 L 0.007,0.001 Z M 1.129,4.65 H 2.298 L 6.16,-8.24 H 2.638 l -0.693,2.148 h -3.876 l -0.694,-2.175 h -3.481 l 2.802,9.015 h 3.148 z" />
      </g>
      <g
         transform="matrix(0.35277777,0,0,-0.35277777,90.474717,214.7178)"
         id="g10105"
         style="stroke-width:0.10072722">
        <path
           inkscape:connector-curvature="0"
           id="path10107"
           style="fill:none;stroke:#ed1c2e;stroke-width:0.01460545;stroke-linecap:butt;stroke-linejoin:miter;stroke-miterlimit:3.86400008;stroke-dasharray:none;stroke-opacity:1"
           d="M 0,0 -0.911,-2.774 H 0.925 L 0.007,0.001 Z M 1.129,4.65 H 2.298 L 6.16,-8.24 H 2.638 l -0.693,2.148 h -3.876 l -0.694,-2.175 h -3.481 l 2.802,9.015 h 3.148 z" />
      </g>
      <g
         transform="matrix(0.35277777,0,0,-0.35277777,93.030486,217.42125)"
         id="g10109"
         style="stroke-width:0.10072722">
        <path
           inkscape:connector-curvature="0"
           id="path10111"
           style="fill:#000000;fill-opacity:1;fill-rule:evenodd;stroke:none;stroke-width:0.10072722"
           d="M 0,0 V 0.255 H 0.206 C 0.295,0.255 0.393,0.241 0.393,0.13 0.393,-0.017 0.236,0 0.135,0 Z m 0.255,-0.069 c 0.128,0.003 0.228,0.056 0.228,0.197 L 0.402,0.284 0.226,0.319 H -0.088 V -0.402 H 0 v 0.333 h 0.162 l 0.206,-0.333 h 0.104 z m -0.103,-0.54 c -0.314,0 -0.567,0.253 -0.567,0.568 0,0.313 0.253,0.566 0.567,0.566 0.312,0 0.565,-0.253 0.565,-0.566 0,-0.315 -0.253,-0.568 -0.565,-0.568 m 0,-0.078 c 0.356,0 0.643,0.289 0.643,0.646 0,0.355 -0.287,0.644 -0.643,0.644 -0.358,0 -0.647,-0.289 -0.647,-0.644 0,-0.357 0.289,-0.646 0.647,-0.646" />
      </g>
    </g>
  </g>
</svg>
